<mxfile host="app.diagrams.net" modified="2024-03-23T18:36:29.743Z" agent="Mozilla/5.0 (Windows NT 10.0; Win64; x64) AppleWebKit/537.36 (KHTML, like Gecko) Chrome/123.0.0.0 Safari/537.36" version="24.1.0" etag="VdlCb-h_rXdXo1eglMcU" type="github">
  <diagram name="Страница — 1" id="317rxoR9Kj247CcyyjfC">
    <mxGraphModel>
      <root>
        <mxCell id="0" />
        <mxCell id="1" parent="0" />
      </root>
    </mxGraphModel>
  </diagram>
</mxfile>
